<svg id="wave" style="transform:rotate(180deg); transition: 0.3s" viewBox="0 0 1440 380" version="1.1" xmlns="http://www.w3.org/2000/svg"><defs><linearGradient id="sw-gradient-0" x1="0" x2="0" y1="1" y2="0"><stop stop-color="rgba(18.086, 157.804, 255, 1)" offset="0%"></stop><stop stop-color="rgba(68.474, 181.722, 255, 1)" offset="100%"></stop></linearGradient></defs><path style="transform:translate(0, 0px); opacity:1" fill="url(#sw-gradient-0)" d="M0,266L80,247C160,228,320,190,480,145.7C640,101,800,51,960,25.3C1120,0,1280,0,1440,50.7C1600,101,1760,203,1920,228C2080,253,2240,203,2400,158.3C2560,114,2720,76,2880,50.7C3040,25,3200,13,3360,6.3C3520,0,3680,0,3840,57C4000,114,4160,228,4320,234.3C4480,241,4640,139,4800,114C4960,89,5120,139,5280,177.3C5440,215,5600,241,5760,253.3C5920,266,6080,266,6240,278.7C6400,291,6560,317,6720,278.7C6880,241,7040,139,7200,120.3C7360,101,7520,165,7680,196.3C7840,228,8000,228,8160,234.3C8320,241,8480,253,8640,215.3C8800,177,8960,89,9120,63.3C9280,38,9440,76,9600,114C9760,152,9920,190,10080,215.3C10240,241,10400,253,10560,240.7C10720,228,10880,190,11040,190C11200,190,11360,228,11440,247L11520,266L11520,380L11440,380C11360,380,11200,380,11040,380C10880,380,10720,380,10560,380C10400,380,10240,380,10080,380C9920,380,9760,380,9600,380C9440,380,9280,380,9120,380C8960,380,8800,380,8640,380C8480,380,8320,380,8160,380C8000,380,7840,380,7680,380C7520,380,7360,380,7200,380C7040,380,6880,380,6720,380C6560,380,6400,380,6240,380C6080,380,5920,380,5760,380C5600,380,5440,380,5280,380C5120,380,4960,380,4800,380C4640,380,4480,380,4320,380C4160,380,4000,380,3840,380C3680,380,3520,380,3360,380C3200,380,3040,380,2880,380C2720,380,2560,380,2400,380C2240,380,2080,380,1920,380C1760,380,1600,380,1440,380C1280,380,1120,380,960,380C800,380,640,380,480,380C320,380,160,380,80,380L0,380Z"></path><defs><linearGradient id="sw-gradient-1" x1="0" x2="0" y1="1" y2="0"><stop stop-color="rgba(34, 134, 213, 1)" offset="0%"></stop><stop stop-color="rgba(0, 143, 255, 1)" offset="100%"></stop></linearGradient></defs><path style="transform:translate(0, 50px); opacity:0.9" fill="url(#sw-gradient-1)" d="M0,38L80,38C160,38,320,38,480,69.7C640,101,800,165,960,158.3C1120,152,1280,76,1440,82.3C1600,89,1760,177,1920,234.3C2080,291,2240,317,2400,297.7C2560,279,2720,215,2880,196.3C3040,177,3200,203,3360,215.3C3520,228,3680,228,3840,221.7C4000,215,4160,203,4320,221.7C4480,241,4640,291,4800,266C4960,241,5120,139,5280,114C5440,89,5600,139,5760,139.3C5920,139,6080,89,6240,76C6400,63,6560,89,6720,133C6880,177,7040,241,7200,228C7360,215,7520,127,7680,101.3C7840,76,8000,114,8160,107.7C8320,101,8480,51,8640,25.3C8800,0,8960,0,9120,44.3C9280,89,9440,177,9600,209C9760,241,9920,215,10080,190C10240,165,10400,139,10560,152C10720,165,10880,215,11040,202.7C11200,190,11360,114,11440,76L11520,38L11520,380L11440,380C11360,380,11200,380,11040,380C10880,380,10720,380,10560,380C10400,380,10240,380,10080,380C9920,380,9760,380,9600,380C9440,380,9280,380,9120,380C8960,380,8800,380,8640,380C8480,380,8320,380,8160,380C8000,380,7840,380,7680,380C7520,380,7360,380,7200,380C7040,380,6880,380,6720,380C6560,380,6400,380,6240,380C6080,380,5920,380,5760,380C5600,380,5440,380,5280,380C5120,380,4960,380,4800,380C4640,380,4480,380,4320,380C4160,380,4000,380,3840,380C3680,380,3520,380,3360,380C3200,380,3040,380,2880,380C2720,380,2560,380,2400,380C2240,380,2080,380,1920,380C1760,380,1600,380,1440,380C1280,380,1120,380,960,380C800,380,640,380,480,380C320,380,160,380,80,380L0,380Z"></path></svg>